<?xml version="1.0" encoding="utf-8"?>
<!-- Generator: Adobe Illustrator 16.0.0, SVG Export Plug-In . SVG Version: 6.00 Build 0)  -->
<!DOCTYPE svg PUBLIC "-//W3C//DTD SVG 1.1//EN" "http://www.w3.org/Graphics/SVG/1.1/DTD/svg11.dtd">
<svg version="1.1" xmlns="http://www.w3.org/2000/svg" xmlns:xlink="http://www.w3.org/1999/xlink" x="0px" y="0px"
	 width="459.584px" height="348px" viewBox="0 0 459.584 348" enable-background="new 0 0 459.584 348" xml:space="preserve">
<g id="Capa_1" display="none">
	<path display="inline" fill="#FFFFFF" d="M459.334,59c0.667,2.667,0,5.667-2,9l-55,82c-2,3.333-5.333,5-10,5c-2,0-3.667-0.333-5-1
		l-44-10v194c0,6.667-3.667,10-11,10H117.333c-6.667,0-10-3.333-10-10V144l-40,10c-4.667,2-8.333,0.667-11-4l-55-82
		c-1.333-2.667-1.667-5.333-1-8C1,56.662,3,54.328,6.333,53l111-53h52c6.667,0,10,3.333,10,10c0,10,5.5,18.5,16.5,25.5
		s22.333,10.5,34,10.5s23.167-3.5,34.5-10.5s17-15.5,17-25.5c0-6.667,3.333-10,10-10h52l110,52
		C456.667,53.333,458.667,55.667,459.334,59z"/>
</g>
<g id="hat" display="none">
	<g display="inline">
		<path fill="#FFFFFF" d="M111.194,254.823c0.471,0.471,1.002,0.97,1.442,1.451c0,0,53.282,37.6,112.025,49.152
			c55.232,10.887,110.466,26.793,209.24-14.965c0,0,3.297-8.179,3.157-11.052c-0.175-3.698-2.971-11.045-5.353-13.888
			c-11.651-13.896-55.646-35.825-69.61-42.603c-40.591,23.019-105.375,35.56-180.074,35.56
			C159.199,258.479,135.428,257.228,111.194,254.823z"/>
		<path fill="#FFFFFF" d="M49.411,148.339c-1.687,16.869,0,67.825,0,67.825s27.263,13.2,47.25,26.97
			c107.817,12.905,206.71,1.706,260.237-28.773c-0.579-5.592-1.197-14.143-0.725-22.821c2.677-49.608,8.04-141.485-123.216-155.122
			c0-0.161,0.06-0.298,0.06-0.46c0-9.714-11.612-17.574-25.93-17.574c-13.887,0-25.105,7.389-25.811,16.676l-0.833-0.02
			C134.064,39.311,58.296,59.724,49.411,148.339z"/>
	</g>
</g>
<g id="cup" display="none">
	<path display="inline" fill="#FFFFFF" d="M11.292,33.381h315v215.031c0,0,4.557,53.547-48.222,66.817H42.292
		c0,0-30-20.122-31-44.926V33.381z"/>
	<path display="inline" fill="#FFFFFF" d="M326.292,33.381c0,0,110,3.119,125,87.119v48c0,0-20.803,80-124.901,77v-38
		c0,0,70.901,2,83.901-58l1-34c0,0-19.803-52-84.901-48L326.292,33.381z"/>
</g>
<g id="outeer">
	<path fill="#FFFFFF" d="M186.616,8.234c0,0-53.505,26.267-59.343,24.321c-5.837-1.946-72.271,250.018-72.271,250.018
		s36.277,6.81,44.06,13.62l47.669-133.278c0,0-2.919,160.281-10.701,175.965h193.594l-18.389-176.938
		c0,0,46.601,99.229,51.465,127.44l50.378-3.891L341.104,32.555L285.845,8.234C285.845,8.234,241.095,64.658,186.616,8.234z"/>
</g>
</svg>
